<svg width="326" height="288" viewBox="0 0 326 288" fill="none" xmlns="http://www.w3.org/2000/svg">
<path d="M214.222 132.324C213.052 134.532 211.363 135.896 209.155 136.416H318.483L325.108 96.4656C323.419 101.662 320.886 106.469 317.508 110.887C314.26 115.304 309.323 119.137 302.697 122.385C296.201 125.503 287.692 127.971 277.168 129.79C266.774 131.609 253.588 132.518 237.607 132.518V75.2237H247.546C253.652 75.3536 258.784 75.8083 262.942 76.5879C267.099 77.2374 270.607 78.4717 273.465 80.2906C276.453 81.9795 278.922 84.383 280.871 87.5011C282.82 90.4893 284.508 94.3869 285.938 99.1939V48.5251C284.508 53.3322 282.82 57.2947 280.871 60.4128C278.922 63.401 276.453 65.8045 273.465 67.6234C270.607 69.3123 267.099 70.4816 262.942 71.1312C258.784 71.7808 253.652 72.2355 247.546 72.4954H237.607V3.89761C253.588 3.89761 266.774 4.80705 277.168 6.62593C287.692 8.44481 296.201 10.9782 302.697 14.2262C309.323 17.3443 314.26 21.112 317.508 25.5293C320.886 29.9466 323.419 34.7536 325.108 39.9504L318.483 0H209.155C211.363 0.519681 213.052 1.88384 214.222 4.09249C215.521 6.30112 216.43 9.15936 216.95 12.6672C217.6 16.0451 217.924 20.0077 217.924 24.5549C218.054 29.1021 218.119 33.9091 218.119 38.976V97.44C218.119 102.507 218.054 107.314 217.924 111.861C217.924 116.408 217.6 120.436 216.95 123.944C216.43 127.322 215.521 130.115 214.222 132.324Z" fill="black"/>
<path d="M84.3784 136.416C86.5871 135.896 88.276 134.532 89.4453 132.324C90.7445 130.115 91.6539 127.322 92.1736 123.944C92.8232 120.436 93.148 116.408 93.148 111.861C93.2779 107.314 93.3429 102.507 93.3429 97.44L93.1467 24.555C93.1467 20.0078 92.8219 16.0452 92.1723 12.6673C91.6526 9.15944 90.7432 6.3012 89.444 4.09257C88.2747 1.88393 86.5857 0.519765 84.3771 8.39233e-05H121.599C119.391 0.519765 117.702 1.88393 116.532 4.09257C115.363 6.3012 114.454 9.15944 113.804 12.6673C113.284 16.0452 112.96 20.0078 112.83 24.555L112.831 71.3261H181.039V38.976C181.039 33.9091 180.974 29.1021 180.844 24.5549C180.844 20.0077 180.519 16.0451 179.87 12.6672C179.35 9.15936 178.441 6.30112 177.141 4.09249C175.972 1.88384 174.283 0.519681 172.074 0H209.297C207.088 0.519681 205.399 1.88384 204.23 4.09249C203.06 6.30112 202.151 9.15936 201.501 12.6672C200.982 16.0451 200.657 20.0077 200.527 24.5549V71.3261H220.955V75.2237H200.527V111.861C200.657 116.408 200.982 120.436 201.501 123.944C202.151 127.322 203.06 130.115 204.23 132.324C205.399 134.532 207.088 135.896 209.297 136.416H172.074C174.283 135.896 175.972 134.532 177.141 132.324C178.441 130.115 179.35 127.322 179.87 123.944C180.519 120.436 180.844 116.408 180.844 111.861C180.974 107.314 181.039 102.507 181.039 97.44V75.2237H112.831V111.861C112.961 116.408 113.286 120.436 113.805 123.944C114.455 127.322 115.364 130.115 116.534 132.324C117.703 134.532 119.392 135.896 121.601 136.416H84.3784Z" fill="black"/>
<path d="M24.7513 9.15936C30.2079 7.08064 37.4834 5.58656 46.5778 4.67712V97.44C46.5778 102.507 46.5129 107.314 46.3829 111.861C46.3829 116.408 46.0581 120.436 45.4085 123.944C44.8888 127.322 44.0444 130.115 42.8751 132.324C41.7058 134.532 40.0168 135.896 37.8082 136.416H75.0303C72.8217 135.896 71.0678 134.532 69.7686 132.324C68.5993 130.115 67.6898 127.322 67.0402 123.944C66.5205 120.436 66.1957 116.408 66.0658 111.861V4.67712C75.2901 5.58656 76.5448 5.3373 82.0015 7.41602C87.4581 9.49474 93.0587 14.9082 93.0587 20.4082L106.016 0H6.62738L0.00146484 39.9504C1.43059 35.4032 2.92466 31.1808 4.4837 27.2832C6.17266 23.3856 8.57619 19.9427 11.6943 16.9546C14.9423 13.8365 19.2946 11.2381 24.7513 9.15936Z" fill="black"/>
<path d="M186.116 151.416C187.935 151.416 189.624 151.676 191.183 152.196C191.963 152.585 192.937 153.3 194.106 154.339C195.276 155.379 196.445 156.548 197.614 157.847C198.784 159.146 199.888 160.445 200.927 161.745C201.967 162.914 202.746 163.888 203.266 164.668C214.179 178.05 223.014 192.99 229.769 209.49C236.655 225.99 241.397 243.01 243.996 260.549C245.685 252.494 248.088 244.829 251.206 237.553C254.454 230.148 258.352 222.742 262.899 215.337C266.147 210.14 269.265 205.203 272.253 200.526C275.371 195.719 278.23 190.912 280.828 186.105C283.426 181.168 285.635 176.036 287.454 170.709C289.273 165.382 290.572 159.536 291.352 153.17V151.416H319.804C317.595 151.936 315.841 153.3 314.542 155.508C313.373 157.717 312.528 160.575 312.009 164.083C311.489 167.461 311.164 171.424 311.034 175.971C311.034 180.518 311.034 185.325 311.034 190.392C311.034 190.782 310.969 190.847 310.839 190.587V248.856C310.969 248.466 311.034 248.466 311.034 248.856C311.034 253.923 311.034 258.73 311.034 263.277C311.164 267.824 311.489 271.852 312.009 275.36C312.528 278.738 313.373 281.531 314.542 283.74C315.841 285.948 317.595 287.312 319.804 287.832H282.582C284.661 287.312 286.285 286.078 287.454 284.129C288.623 282.181 289.468 279.647 289.987 276.529C290.637 273.411 291.027 269.838 291.157 265.811C291.287 261.653 291.352 257.236 291.352 252.559V172.463C289.403 178.18 286.934 183.636 283.946 188.833C281.088 194.03 277.97 199.227 274.592 204.423C271.344 209.49 268.096 214.687 264.848 220.014C261.6 225.211 258.612 230.667 255.883 236.384C251.336 246.388 248.348 256.846 246.919 267.759C247.179 273.216 247.893 277.763 249.063 281.401C250.362 284.909 252.505 287.053 255.494 287.832H218.077C221.455 287.053 223.598 284.389 224.508 279.842C225.417 275.295 225.482 269.513 224.703 262.498C223.533 254.962 221.714 247.037 219.246 238.722C216.907 230.407 213.984 222.222 210.476 214.167C207.098 205.982 203.136 198.252 198.589 190.977C194.041 183.571 188.975 177.075 183.388 171.489C182.868 170.839 182.154 170.06 181.244 169.15C180.335 168.111 179.49 167.136 178.711 166.227V166.812L178.516 168.176V252.559C178.516 257.236 178.581 261.653 178.711 265.811C178.841 269.838 179.166 273.411 179.685 276.529C180.335 279.647 181.244 282.181 182.414 284.129C183.583 286.078 185.207 287.312 187.286 287.832H165.654C167.863 287.312 169.551 285.948 170.721 283.74C172.02 281.531 172.929 278.738 173.449 275.36C174.099 271.852 174.423 267.824 174.423 263.277C174.553 258.73 174.618 253.923 174.618 248.856V190.392C174.618 185.325 174.553 180.518 174.423 175.971C174.423 171.424 174.099 167.461 173.449 164.083C172.929 160.575 172.02 157.717 170.721 155.508C169.551 153.3 167.863 151.936 165.654 151.416H186.116Z" fill="black"/>
<path d="M56.1402 287.832C58.3488 287.182 60.3626 285.818 62.1815 283.74C64.1303 281.531 66.0141 278.673 67.833 275.165C68.4826 273.996 69.0672 272.761 69.5869 271.462C70.1066 270.163 70.6912 268.864 71.3408 267.565C72.8999 263.667 74.6538 259.315 76.6026 254.508C78.5514 249.571 80.6301 244.374 82.8388 238.917C83.0756 238.332 83.3064 237.832 83.8132 236.579C86.2816 230.472 88.7501 224.366 91.2186 218.26C93.6871 212.024 95.9607 206.307 98.0394 201.11C100.248 195.914 102.132 191.431 103.691 187.664C105.25 183.896 106.289 181.363 106.809 180.063C107.069 179.544 107.264 179.024 107.394 178.504C107.524 177.985 107.718 177.465 107.978 176.945L110.512 170.904C110.772 170.254 110.966 169.735 111.096 169.345C111.226 168.825 111.421 168.306 111.681 167.786C109.602 163.239 107.589 159.536 105.64 156.678C103.691 153.82 101.612 152.066 99.4036 151.416H126.297L136.821 177.53C137.34 178.699 138.25 180.973 139.549 184.351C140.848 187.599 142.407 191.561 144.226 196.238C146.175 200.916 148.253 206.112 150.462 211.829C152.801 217.415 155.139 223.132 157.478 228.978C159.816 234.695 162.09 240.346 164.299 245.933C166.637 251.389 168.716 256.391 170.535 260.939C173.523 268.344 176.316 274.45 178.915 279.257C181.513 284.064 184.306 286.923 187.294 287.832H147.539C149.618 287.312 151.047 286.078 151.826 284.129C152.606 282.051 152.801 279.452 152.411 276.334C152.151 273.216 151.437 269.643 150.267 265.616C149.228 261.458 147.799 257.041 145.98 252.364C144.421 248.596 142.342 243.464 139.744 236.968C137.145 230.472 134.287 223.457 131.169 215.921C128.181 208.386 125.128 200.851 122.01 193.315C121.74 192.623 121.484 191.973 121.232 191.332C120.68 189.932 120.141 188.577 119.495 186.925C117.473 181.838 115.583 177.212 113.825 173.048C112.266 176.815 110.577 180.908 108.758 185.325C107.069 189.612 105.315 194.095 103.496 198.772C101.677 203.319 99.7933 207.866 97.8445 212.413C96.0256 216.961 94.2717 221.378 92.5828 225.665C95.7008 222.937 98.8839 221.053 102.132 220.014C105.51 218.845 109.277 218.26 113.435 218.26C115.644 218.26 117.722 218.39 119.671 218.65C121.75 218.78 123.634 219.169 125.323 219.819C127.141 220.469 128.765 221.378 130.195 222.547C131.754 223.717 133.118 225.34 134.287 227.419C135.716 230.018 136.431 232.746 136.431 235.604C136.431 238.462 135.781 240.736 134.482 242.425C133.183 244.114 131.559 245.413 129.61 246.323C127.661 247.102 125.517 247.622 123.179 247.882C120.84 248.012 118.567 248.077 116.358 248.077C115.968 248.077 115.254 248.077 114.214 248.077C113.175 247.947 112.071 247.817 110.901 247.687C109.862 247.557 108.888 247.362 107.978 247.102C107.069 246.842 106.614 246.517 106.614 246.128C106.614 245.738 106.874 245.478 107.394 245.348C107.913 245.218 108.498 245.088 109.148 244.958C109.797 244.829 110.447 244.764 111.096 244.764C111.746 244.634 112.201 244.504 112.461 244.374C114.02 243.594 115.124 242.425 115.773 240.866C116.553 239.177 116.943 237.423 116.943 235.604C116.943 233.136 116.293 230.667 114.994 228.199C113.825 225.6 112.136 223.652 109.927 222.352C104.99 222.612 100.638 224.171 96.8701 227.029C93.2324 229.888 90.2442 233.331 87.9056 237.358L87.321 238.527C85.762 242.555 84.3978 245.998 83.2285 248.856C82.1892 251.584 81.4096 253.533 80.89 254.702L80.3053 256.261C77.1872 264.836 75.1735 271.982 74.264 277.698C73.3546 283.415 74.7837 286.793 78.5514 287.832H56.1402Z" fill="black"/>
<path d="M5.30583 287.832C7.51447 287.312 9.20343 285.948 10.3727 283.74C11.6719 281.531 12.5814 278.738 13.101 275.36C13.7506 271.852 14.0754 267.824 14.0754 263.277C14.2054 258.73 14.2703 253.923 14.2703 248.856V190.392C14.2703 185.325 14.2054 180.518 14.0754 175.971C14.0754 171.424 13.7506 167.461 13.101 164.083C12.5814 160.575 11.6719 157.717 10.3727 155.508C9.20343 153.3 7.51447 151.936 5.30583 151.416H114.634L121.259 191.366C119.57 186.17 117.037 181.363 113.659 176.945C110.411 172.528 105.474 168.76 98.8482 165.642C92.3522 162.394 83.8425 159.861 73.319 158.042C62.9254 156.223 49.7385 155.314 33.7583 155.314V214.167H43.6972C49.8034 213.908 54.9353 213.453 59.0927 212.803C63.2502 212.154 66.758 210.984 69.6162 209.295C72.6044 207.477 75.0729 205.073 77.0217 202.085C78.9705 198.967 80.6594 195.004 82.0886 190.197V240.866C80.3996 235.409 78.3858 231.122 76.0473 228.004C73.8386 224.886 70.9154 222.547 67.2777 220.988C63.6399 219.299 59.0927 218.195 53.6361 217.675C48.3094 217.156 41.6834 216.896 33.7583 216.896V252.559C33.7583 257.236 33.8233 261.653 33.9532 265.811C34.0831 269.838 34.4079 273.411 34.9276 276.529C35.5772 279.647 36.4866 282.181 37.6559 284.129C38.8252 286.078 40.4492 287.312 42.5279 287.832H5.30583Z" fill="black"/>
</svg>