<svg width="382" height="338" viewBox="0 0 382 338" fill="none" xmlns="http://www.w3.org/2000/svg">
<path d="M251.12 155.116C249.749 157.705 247.769 159.305 245.18 159.914H373.34L381.107 113.082C379.127 119.174 376.157 124.809 372.198 129.987C368.39 135.165 362.603 139.658 354.835 143.466C347.221 147.121 337.245 150.014 324.909 152.147C312.725 154.279 297.267 155.345 278.534 155.345V88.181H290.185C297.343 88.3333 303.358 88.8664 308.232 89.7802C313.106 90.5417 317.218 91.9885 320.568 94.1207C324.071 96.1006 326.965 98.9181 329.249 102.573C331.534 106.076 333.514 110.645 335.189 116.28V56.8836C333.514 62.5187 331.534 67.1638 329.249 70.819C326.965 74.3219 324.071 77.1394 320.568 79.2716C317.218 81.2514 313.106 82.6221 308.232 83.3836C303.358 84.1451 297.343 84.6782 290.185 84.9828H278.534V4.56897C297.267 4.56897 312.725 5.63507 324.909 7.76725C337.245 9.89943 347.221 12.8693 354.835 16.6767C362.603 20.3319 368.39 24.7486 372.198 29.9267C376.157 35.1049 379.127 40.7399 381.107 46.8319L373.34 0H245.18C247.769 0.609197 249.749 2.20834 251.12 4.79742C252.643 7.38649 253.709 10.7371 254.318 14.8491C255.08 18.8089 255.46 23.454 255.46 28.7845C255.613 34.1149 255.689 39.75 255.689 45.6897V114.224C255.689 120.164 255.613 125.799 255.46 131.129C255.46 136.46 255.08 141.181 254.318 145.293C253.709 149.253 252.643 152.527 251.12 155.116Z" fill="black"/>
<path d="M98.911 159.914C101.5 159.305 103.48 157.705 104.851 155.116C106.374 152.527 107.44 149.253 108.049 145.293C108.81 141.181 109.191 136.46 109.191 131.129C109.343 125.799 109.42 120.164 109.42 114.224L109.19 28.7846C109.19 23.4541 108.809 18.809 108.047 14.8492C107.438 10.7372 106.372 7.38659 104.849 4.79752C103.478 2.20844 101.498 0.609295 98.9094 9.83792e-05H142.543C139.954 0.609295 137.974 2.20844 136.603 4.79752C135.233 7.38659 134.167 10.7372 133.405 14.8492C132.796 18.809 132.415 23.4541 132.263 28.7846L132.265 83.6121H212.221V45.6897C212.221 39.75 212.145 34.1149 211.993 28.7845C211.993 23.454 211.612 18.8089 210.851 14.8491C210.242 10.7371 209.175 7.38649 207.652 4.79742C206.282 2.20834 204.302 0.609197 201.713 0H245.346C242.757 0.609197 240.777 2.20834 239.407 4.79742C238.036 7.38649 236.97 10.7371 236.209 14.8491C235.599 18.8089 235.219 23.454 235.066 28.7845V83.6121H259.013V88.181H235.066V131.129C235.219 136.46 235.599 141.181 236.209 145.293C236.97 149.253 238.036 152.527 239.407 155.116C240.777 157.705 242.757 159.305 245.346 159.914H201.713C204.302 159.305 206.282 157.705 207.652 155.116C209.175 152.527 210.242 149.253 210.851 145.293C211.612 141.181 211.993 136.46 211.993 131.129C212.145 125.799 212.221 120.164 212.221 114.224V88.181H132.265V131.129C132.417 136.46 132.798 141.181 133.407 145.293C134.168 149.253 135.234 152.527 136.605 155.116C137.976 157.705 139.956 159.305 142.545 159.914H98.911Z" fill="black"/>
<path d="M29.013 10.7371C35.4095 8.30029 43.9382 6.54885 54.5991 5.48276V114.224C54.5991 120.164 54.523 125.799 54.3707 131.129C54.3707 136.46 53.9899 141.181 53.2285 145.293C52.6193 149.253 51.6293 152.527 50.2587 155.116C48.888 157.705 46.9081 159.305 44.319 159.914H87.9526C85.3635 159.305 83.3075 157.705 81.7845 155.116C80.4138 152.527 79.3477 149.253 78.5862 145.293C77.977 141.181 77.5963 136.46 77.444 131.129V5.48276C88.2572 6.54885 89.728 6.25665 96.1246 8.69343C102.521 11.1302 109.086 17.4762 109.086 23.9236L124.276 0H7.76724L0 46.8319C1.67529 41.5014 3.42672 36.5517 5.25431 31.9828C7.23419 27.4138 10.0517 23.3779 13.7069 19.875C17.5144 16.2198 22.6164 13.1739 29.013 10.7371Z" fill="black"/>
<path d="M218.173 177.498C220.305 177.498 222.285 177.802 224.113 178.411C225.027 178.868 226.169 179.706 227.54 180.924C228.91 182.143 230.281 183.513 231.652 185.036C233.022 186.559 234.317 188.082 235.535 189.605C236.754 190.976 237.668 192.118 238.277 193.032C251.07 208.719 261.426 226.233 269.346 245.575C277.418 264.917 282.976 284.868 286.022 305.429C288.002 295.986 290.82 287 294.475 278.472C298.283 269.791 302.851 261.11 308.182 252.429C311.989 246.337 315.645 240.549 319.147 235.067C322.803 229.431 326.153 223.796 329.199 218.161C332.245 212.374 334.834 206.358 336.966 200.114C339.099 193.87 340.622 187.016 341.535 179.554V177.498H374.889C372.3 178.107 370.244 179.706 368.721 182.295C367.35 184.884 366.36 188.235 365.751 192.347C365.142 196.306 364.761 200.952 364.609 206.282C364.609 211.613 364.609 217.248 364.609 223.187C364.609 223.644 364.532 223.72 364.38 223.416V291.722C364.532 291.265 364.609 291.265 364.609 291.722C364.609 297.661 364.609 303.296 364.609 308.627C364.761 313.957 365.142 318.679 365.751 322.791C366.36 326.75 367.35 330.025 368.721 332.614C370.244 335.203 372.3 336.802 374.889 337.411H331.255C333.692 336.802 335.596 335.355 336.966 333.071C338.337 330.786 339.327 327.817 339.936 324.161C340.698 320.506 341.155 316.318 341.307 311.597C341.459 306.723 341.535 301.545 341.535 296.062V202.17C339.251 208.871 336.357 215.268 332.854 221.36C329.504 227.452 325.849 233.544 321.889 239.635C318.081 245.575 314.274 251.667 310.466 257.911C306.659 264.003 303.156 270.4 299.958 277.101C294.627 288.828 291.124 301.088 289.449 313.881C289.754 320.278 290.591 325.608 291.962 329.873C293.485 333.985 295.998 336.498 299.501 337.411H255.639C259.599 336.498 262.112 333.375 263.178 328.045C264.244 322.715 264.32 315.937 263.406 307.713C262.035 298.88 259.903 289.59 257.01 279.842C254.268 270.095 250.841 260.5 246.729 251.058C242.77 241.463 238.124 232.401 232.794 223.873C227.464 215.192 221.524 207.577 214.975 201.028C214.366 200.266 213.528 199.352 212.462 198.286C211.396 197.068 210.406 195.926 209.492 194.86V195.545L209.264 197.144V296.062C209.264 301.545 209.34 306.723 209.492 311.597C209.645 316.318 210.025 320.506 210.634 324.161C211.396 327.817 212.462 330.786 213.833 333.071C215.203 335.355 217.107 336.802 219.544 337.411H194.186C196.775 336.802 198.755 335.203 200.126 332.614C201.649 330.025 202.715 326.75 203.324 322.791C204.086 318.679 204.466 313.957 204.466 308.627C204.619 303.296 204.695 297.661 204.695 291.722V223.187C204.695 217.248 204.619 211.613 204.466 206.282C204.466 200.952 204.086 196.306 203.324 192.347C202.715 188.235 201.649 184.884 200.126 182.295C198.755 179.706 196.775 178.107 194.186 177.498H218.173Z" fill="black"/>
<path d="M65.8087 337.411C68.3978 336.65 70.7584 335.051 72.8906 332.614C75.1751 330.025 77.3834 326.674 79.5156 322.562C80.2771 321.192 80.9624 319.745 81.5716 318.222C82.1808 316.699 82.8662 315.176 83.6276 313.653C85.4552 309.084 87.5113 303.982 89.7958 298.347C92.0802 292.559 94.517 286.467 97.1061 280.071C97.3837 279.385 97.6543 278.799 98.2483 277.329C101.142 270.171 104.036 263.013 106.929 255.855C109.823 248.545 112.488 241.844 114.925 235.752C117.514 229.66 119.722 224.406 121.55 219.989C123.378 215.572 124.596 212.602 125.205 211.079C125.51 210.47 125.738 209.861 125.891 209.252C126.043 208.643 126.271 208.034 126.576 207.424L129.546 200.342C129.85 199.581 130.079 198.972 130.231 198.515C130.383 197.906 130.612 197.296 130.916 196.687C128.48 191.357 126.119 187.016 123.835 183.666C121.55 180.315 119.113 178.259 116.524 177.498H148.05L160.386 208.11C160.995 209.48 162.062 212.146 163.585 216.105C165.108 219.913 166.935 224.558 169.067 230.041C171.352 235.523 173.789 241.615 176.378 248.317C179.119 254.865 181.86 261.567 184.602 268.42C187.343 275.121 190.008 281.746 192.597 288.295C195.339 294.692 197.776 300.555 199.908 305.886C203.411 314.567 206.685 321.725 209.731 327.36C212.777 332.995 216.052 336.345 219.554 337.411H172.951C175.388 336.802 177.063 335.355 177.977 333.071C178.891 330.634 179.119 327.588 178.662 323.933C178.358 320.278 177.52 316.09 176.149 311.368C174.931 306.495 173.256 301.317 171.123 295.834C169.296 291.417 166.859 285.401 163.813 277.786C160.767 270.171 157.416 261.947 153.761 253.114C150.258 244.281 146.679 235.447 143.024 226.614C142.708 225.802 142.408 225.04 142.112 224.289C141.465 222.648 140.834 221.059 140.077 219.124C137.706 213.16 135.491 207.737 133.429 202.855C131.602 207.272 129.622 212.069 127.49 217.248C125.51 222.273 123.454 227.528 121.322 233.011C119.189 238.341 116.981 243.671 114.697 249.002C112.564 254.332 110.508 259.511 108.529 264.536C112.184 261.338 115.915 259.13 119.722 257.911C123.682 256.541 128.099 255.855 132.972 255.855C135.562 255.855 137.998 256.008 140.283 256.312C142.72 256.465 144.928 256.921 146.908 257.683C149.04 258.444 150.944 259.511 152.619 260.881C154.447 262.252 156.046 264.156 157.416 266.592C159.092 269.638 159.929 272.837 159.929 276.187C159.929 279.538 159.168 282.203 157.645 284.183C156.122 286.163 154.218 287.686 151.934 288.752C149.649 289.666 147.136 290.275 144.395 290.579C141.654 290.732 138.988 290.808 136.399 290.808C135.942 290.808 135.105 290.808 133.886 290.808C132.668 290.656 131.373 290.503 130.003 290.351C128.784 290.199 127.642 289.97 126.576 289.666C125.51 289.361 124.977 288.98 124.977 288.523C124.977 288.067 125.281 287.762 125.891 287.61C126.5 287.457 127.185 287.305 127.947 287.153C128.708 287 129.47 286.924 130.231 286.924C130.993 286.772 131.526 286.62 131.83 286.467C133.658 285.554 134.952 284.183 135.714 282.355C136.628 280.375 137.085 278.319 137.085 276.187C137.085 273.294 136.323 270.4 134.8 267.506C133.429 264.46 131.449 262.176 128.86 260.653C123.073 260.957 117.971 262.785 113.554 266.136C109.29 269.486 105.787 273.522 103.046 278.243L102.36 279.614C100.533 284.335 98.9337 288.371 97.563 291.722C96.3446 294.92 95.4308 297.204 94.8216 298.575L94.1363 300.403C90.4811 310.454 88.1205 318.831 87.0544 325.532C85.9883 332.233 87.6636 336.193 92.0802 337.411H65.8087Z" fill="black"/>
<path d="M6.21805 337.411C8.80713 336.802 10.787 335.203 12.1577 332.614C13.6807 330.025 14.7468 326.75 15.356 322.791C16.1175 318.679 16.4982 313.957 16.4982 308.627C16.6505 303.296 16.7267 297.661 16.7267 291.722V223.187C16.7267 217.248 16.6505 211.613 16.4982 206.282C16.4982 200.952 16.1175 196.306 15.356 192.347C14.7468 188.235 13.6807 184.884 12.1577 182.295C10.787 179.706 8.80713 178.107 6.21805 177.498H134.378L142.145 224.329C140.165 218.238 137.195 212.602 133.235 207.424C129.428 202.246 123.64 197.829 115.873 194.174C108.258 190.367 98.2827 187.397 85.9465 185.265C73.7626 183.133 58.3043 182.067 39.5715 182.067V251.058H51.2224C58.3804 250.753 64.3962 250.22 69.2698 249.459C74.1433 248.697 78.2554 247.327 81.606 245.347C85.1089 243.215 88.0025 240.397 90.287 236.894C92.5715 233.239 94.5514 228.594 96.2267 222.959V282.355C94.2468 275.959 91.8862 270.933 89.1448 267.278C86.5557 263.623 83.129 260.881 78.8646 259.054C74.6002 257.074 69.2698 255.779 62.8732 255.17C56.629 254.561 48.8617 254.256 39.5715 254.256V296.062C39.5715 301.545 39.6476 306.723 39.7999 311.597C39.9522 316.318 40.333 320.506 40.9422 324.161C41.7037 327.817 42.7698 330.786 44.1405 333.071C45.5112 335.355 47.4149 336.802 49.8517 337.411H6.21805Z" fill="black"/>
</svg>
